#!OML:ASF X:\für Bonn\!DataBase\2005_08_12_Daniel\c3d\Daniel.ASF
:FULLY-SPECIFIED
:DEGREES
159
root 2.49325 17.6236 17.4144 -5.26195 16.1404 0.616474
lowerback 8.28541 1.47047 -0.250489
upperback 1.9439 1.79943 -5.58781
thorax -2.45468 0.908663 -5.87232
lowerneck 4.15265 -4.20395 1.57922
upperneck 22.6354 -5.98044 1.99082
head 6.21924 -2.58383 0.137834
rclavicle -1.74931e-014 2.06736e-014
rhumerus 24.4781 -6.32084 -53.4801
rradius 77.161
rwrist -12.9284
rhand -0.165977 10.4652
rfingers 7.12502
rthumb 25.4314 -17.8583
lclavicle -1.74931e-014 2.06736e-014
lhumerus -34.5094 40.3359 63.1427
lradius 18.4977
lwrist -37.2587
lhand -11.2527 -6.59636
lfingers 7.12502
lthumb 14.777 22.8568
rfemur 5.47489 13.877 21.0003
rtibia 18.8453
rfoot -27.2591 -24.8459
rtoes -9.29463
lfemur -2.84144 -17.2233 -18.4027
ltibia 28.4333
lfoot -20.2951 2.01464
ltoes -15.5015
160
root 2.47571 17.6231 17.4016 -5.2859 16.4941 0.603266
lowerback 8.52243 1.36338 -0.53306
upperback 2.0648 1.63155 -5.53316
thorax -2.48714 0.827181 -5.6416
lowerneck 4.34655 -4.1739 1.60374
upperneck 22.7087 -5.93603 2.0144
head 6.21071 -2.55823 0.147151
rclavicle 3.18055e-014 -1.90833e-014
rhumerus 22.23 -6.61006 -53.0307
rradius 80.4817
rwrist -14.1075
rhand -0.277123 10.6081
rfingers 7.12502
rthumb 25.3249 -17.7306
lclavicle 3.18055e-014 -1.90833e-014
lhumerus -33.9433 39.3036 64.1638
lradius 18.9477
lwrist -35.8575
lhand -11.1898 -6.49233
lfingers 7.12502
lthumb 14.8377 22.9564
rfemur 5.38708 13.3389 20.9509
rtibia 18.9421
rfoot -27.181 -24.6891
rtoes -9.32789
lfemur -3.07028 -17.1779 -18.2669
ltibia 28.5646
lfoot -20.2001 1.57989
ltoes -15.5471
161
root 2.45578 17.6216 17.388 -5.3079 16.8878 0.590334
lowerback 8.77679 1.24861 -0.846777
upperback 2.19757 1.45001 -5.46783
thorax -2.517 0.739108 -5.37997
lowerneck 4.56058 -4.13604 1.57522
upperneck 22.7327 -5.88402 2.07143
head 6.18537 -2.53227 0.177131
rclavicle 4.87022e-015 -4.77083e-015
rhumerus 19.9322 -6.85425 -52.4782
rradius 83.8347
rwrist -15.2112
rhand -0.334892 10.6345
rfingers 7.12502
rthumb 25.2696 -17.7119
lclavicle 4.87022e-015 -4.77083e-015
lhumerus -33.4059 38.3148 65.1531
lradius 19.4225
lwrist -34.5317
lhand -11.0552 -6.36071
lfingers 7.12502
lthumb 14.9673 23.0784
rfemur 5.29696 12.7828 20.9066
rtibia 19.0521
rfoot -27.1352 -24.5282
rtoes -9.23803
lfemur -3.32792 -17.102 -18.1108
ltibia 28.7123
lfoot -20.1002 1.07157
ltoes -15.539
162
root 2.43436 17.6202 17.3742 -5.34686 17.3185 0.551442
lowerback 9.0608 1.12477 -1.13821
upperback 2.33052 1.25619 -5.39929
thorax -2.56103 0.644591 -5.12656
lowerneck 4.78673 -4.0918 1.52036
upperneck 22.767 -5.82696 2.15188
head 6.16279 -2.50429 0.219237
rclavicle 2.15681e-014 -1.43125e-014
rhumerus 17.5708 -7.06547 -51.9312
rradius 87.237
rwrist -16.3162
rhand -0.242211 10.5372
rfingers 7.12502
rthumb 25.3584 -17.7967
lclavicle 2.15681e-014 -1.43125e-014
lhumerus -32.9437 37.2543 66.1157
lradius 19.9694
lwrist -33.1802
lhand -10.9465 -6.20307
lfingers 7.12502
lthumb 15.072 23.2283
rfemur 5.1977 12.1241 20.8752
rtibia 19.1811
rfoot -27.0797 -24.3283
rtoes -9.29795
lfemur -3.60229 -17.0339 -17.923
ltibia 28.8787
lfoot -19.9974 0.528821
ltoes -15.5698
163
root 2.41106 17.6183 17.3609 -5.38537 17.7949 0.513093
lowerback 9.35222 0.992945 -1.45655
upperback 2.47995 1.04904 -5.32188
thorax -2.59093 0.543776 -4.8458
lowerneck 5.01497 -4.03935 1.45809
upperneck 22.7624 -5.76314 2.26243
head 6.12832 -2.47261 0.272705
rclavicle 3.78685e-014 3.18055e-015
rhumerus 15.2471 -7.27914 -51.3955
rradius 90.5699
rwrist -17.4233
rhand 0.0104178 10.3805
rfingers 7.12502
rthumb 25.6004 -17.9188
lclavicle 3.78685e-014 3.18055e-015
lhumerus -32.4894 36.2364 67.0385
lradius 20.5145
lwrist -31.9286
lhand -10.8295 -6.05479
lfingers 7.12502
lthumb 15.1847 23.368
rfemur 5.09744 11.443 20.8461
rtibia 19.3269
rfoot -27.0321 -24.1301
rtoes -9.27819
lfemur -3.89737 -17.002 -17.7333
ltibia 29.0614
lfoot -19.907 -0.0256561
ltoes -15.6062
164
root 2.38606 17.6159 17.3475 -5.42011 18.3242 0.487644
lowerback 9.66667 0.849042 -1.78015
upperback 2.63193 0.822872 -5.25869
thorax -2.62879 0.433454 -4.57448
lowerneck 5.27863 -3.97749 1.37709
upperneck 22.7165 -5.69293 2.42259
head 6.07658 -2.43749 0.346336
rclavicle 6.34123e-014 3.49861e-014
rhumerus 12.8922 -7.49831 -50.9699
rradius 93.7628
rwrist -18.5574
rhand 0.40216 10.3323
rfingers 7.12502
rthumb 25.9755 -17.9126
lclavicle 6.34123e-014 3.49861e-014
lhumerus -32.0656 35.1554 67.9544
lradius 21.1004
lwrist -30.6089
lhand -10.7492 -5.91081
lfingers 7.12502
lthumb 15.2621 23.5061
rfemur 4.98961 10.7374 20.8105
rtibia 19.4891
rfoot -26.9997 -23.9714
rtoes -9.23544
lfemur -4.22375 -16.9395 -17.5446
ltibia 29.2621
lfoot -19.7971 -0.649426
ltoes -15.6365
